<svg width="24" height="16" viewBox="0 0 24 16" fill="none" xmlns="http://www.w3.org/2000/svg">
<path d="M0 1.71429C0 1.25963 0.180612 0.823594 0.502103 0.502103C0.823594 0.180612 1.25963 0 1.71429 0H5.14286C5.59751 0 6.03355 0.180612 6.35504 0.502103C6.67653 0.823594 6.85714 1.25963 6.85714 1.71429V5.14286C6.85714 5.59751 6.67653 6.03355 6.35504 6.35504C6.03355 6.67653 5.59751 6.85714 5.14286 6.85714H1.71429C1.25963 6.85714 0.823594 6.67653 0.502103 6.35504C0.180612 6.03355 0 5.59751 0 5.14286V1.71429ZM8.57143 1.71429C8.57143 1.25963 8.75204 0.823594 9.07353 0.502103C9.39502 0.180612 9.83106 0 10.2857 0H13.7143C14.1689 0 14.605 0.180612 14.9265 0.502103C15.248 0.823594 15.4286 1.25963 15.4286 1.71429V5.14286C15.4286 5.59751 15.248 6.03355 14.9265 6.35504C14.605 6.67653 14.1689 6.85714 13.7143 6.85714H10.2857C9.83106 6.85714 9.39502 6.67653 9.07353 6.35504C8.75204 6.03355 8.57143 5.59751 8.57143 5.14286V1.71429ZM17.1429 1.71429C17.1429 1.25963 17.3235 0.823594 17.645 0.502103C17.9665 0.180612 18.4025 0 18.8571 0H22.2857C22.7404 0 23.1764 0.180612 23.4979 0.502103C23.8194 0.823594 24 1.25963 24 1.71429V5.14286C24 5.59751 23.8194 6.03355 23.4979 6.35504C23.1764 6.67653 22.7404 6.85714 22.2857 6.85714H18.8571C18.4025 6.85714 17.9665 6.67653 17.645 6.35504C17.3235 6.03355 17.1429 5.59751 17.1429 5.14286V1.71429ZM0 10.2857C0 9.83106 0.180612 9.39502 0.502103 9.07353C0.823594 8.75204 1.25963 8.57143 1.71429 8.57143H5.14286C5.59751 8.57143 6.03355 8.75204 6.35504 9.07353C6.67653 9.39502 6.85714 9.83106 6.85714 10.2857V13.7143C6.85714 14.1689 6.67653 14.605 6.35504 14.9265C6.03355 15.248 5.59751 15.4286 5.14286 15.4286H1.71429C1.25963 15.4286 0.823594 15.248 0.502103 14.9265C0.180612 14.605 0 14.1689 0 13.7143V10.2857ZM8.57143 10.2857C8.57143 9.83106 8.75204 9.39502 9.07353 9.07353C9.39502 8.75204 9.83106 8.57143 10.2857 8.57143H13.7143C14.1689 8.57143 14.605 8.75204 14.9265 9.07353C15.248 9.39502 15.4286 9.83106 15.4286 10.2857V13.7143C15.4286 14.1689 15.248 14.605 14.9265 14.9265C14.605 15.248 14.1689 15.4286 13.7143 15.4286H10.2857C9.83106 15.4286 9.39502 15.248 9.07353 14.9265C8.75204 14.605 8.57143 14.1689 8.57143 13.7143V10.2857ZM17.1429 10.2857C17.1429 9.83106 17.3235 9.39502 17.645 9.07353C17.9665 8.75204 18.4025 8.57143 18.8571 8.57143H22.2857C22.7404 8.57143 23.1764 8.75204 23.4979 9.07353C23.8194 9.39502 24 9.83106 24 10.2857V13.7143C24 14.1689 23.8194 14.605 23.4979 14.9265C23.1764 15.248 22.7404 15.4286 22.2857 15.4286H18.8571C18.4025 15.4286 17.9665 15.248 17.645 14.9265C17.3235 14.605 17.1429 14.1689 17.1429 13.7143V10.2857Z" fill="white"/>
</svg>
