<svg width="24" height="25" viewBox="0 0 24 25" fill="none" xmlns="http://www.w3.org/2000/svg">
<path d="M22.1954 4.85202C23.2465 5.22137 24 6.22269 24 7.4V19.4C24 22.2167 21.7167 24.5 18.9 24.5H6.9C5.72269 24.5 4.72137 23.7465 4.35202 22.6954L6.86875 22.6995L18.9 22.7C20.7225 22.7 22.2 21.2225 22.2 19.4V7.4L22.1952 7.33882L22.1954 4.85202ZM18.2962 0.5C19.7873 0.5 20.9962 1.70883 20.9962 3.2V18.7962C20.9962 20.2873 19.7873 21.4962 18.2962 21.4962H2.7C1.20883 21.4962 0 20.2873 0 18.7962V3.2C0 1.70883 1.20883 0.5 2.7 0.5H18.2962ZM18.2962 2.3H2.7C2.20294 2.3 1.8 2.70294 1.8 3.2V18.7962C1.8 19.2932 2.20294 19.6962 2.7 19.6962H18.2962C18.7932 19.6962 19.1962 19.2932 19.1962 18.7962V3.2C19.1962 2.70294 18.7932 2.3 18.2962 2.3ZM10.5 6.2C10.9971 6.2 11.4 6.60294 11.4 7.1V10.1H14.4C14.8971 10.1 15.3 10.5029 15.3 11C15.3 11.4971 14.8971 11.9 14.4 11.9H11.4V14.9C11.4 15.3971 10.9971 15.8 10.5 15.8C10.0029 15.8 9.6 15.3971 9.6 14.9V11.9H6.6C6.10294 11.9 5.7 11.4971 5.7 11C5.7 10.5029 6.10294 10.1 6.6 10.1H9.6V7.1C9.6 6.60294 10.0029 6.2 10.5 6.2Z" fill="white"/>
</svg>
