<svg width="343" height="38" viewBox="0 0 343 38" fill="none" xmlns="http://www.w3.org/2000/svg">
<path d="M14.925 16.1C14.925 17.1167 14.6917 18.05 14.225 18.9C13.7583 19.7333 13.0417 20.4083 12.075 20.925C11.1083 21.4417 9.90833 21.7 8.475 21.7H5.825V28H1.55V10.45H8.475C9.875 10.45 11.0583 10.6917 12.025 11.175C12.9917 11.6583 13.7167 12.325 14.2 13.175C14.6833 14.025 14.925 15 14.925 16.1ZM8.15 18.3C8.96667 18.3 9.575 18.1083 9.975 17.725C10.375 17.3417 10.575 16.8 10.575 16.1C10.575 15.4 10.375 14.8583 9.975 14.475C9.575 14.0917 8.96667 13.9 8.15 13.9H5.825V18.3H8.15ZM26.1006 28L22.4506 21.375H21.4256V28H17.1506V10.45H24.3256C25.7089 10.45 26.8839 10.6917 27.8506 11.175C28.8339 11.6583 29.5673 12.325 30.0506 13.175C30.5339 14.0083 30.7756 14.9417 30.7756 15.975C30.7756 17.1417 30.4423 18.1833 29.7756 19.1C29.1256 20.0167 28.1589 20.6667 26.8756 21.05L30.9256 28H26.1006ZM21.4256 18.35H24.0756C24.8589 18.35 25.4423 18.1583 25.8256 17.775C26.2256 17.3917 26.4256 16.85 26.4256 16.15C26.4256 15.4833 26.2256 14.9583 25.8256 14.575C25.4423 14.1917 24.8589 14 24.0756 14H21.4256V18.35ZM37.7342 13.875V17.425H43.4592V20.725H37.7342V24.575H44.2092V28H33.4592V10.45H44.2092V13.875H37.7342ZM63.4596 10.45L57.2346 28H51.8846L45.6596 10.45H50.2096L54.5596 23.7L58.9346 10.45H63.4596ZM69.5213 10.45V28H65.2463V10.45H69.5213ZM67.3713 8.85C66.8546 8.85 66.4213 8.675 66.0713 8.325C65.7213 7.975 65.5463 7.54167 65.5463 7.025C65.5463 6.50833 65.7213 6.075 66.0713 5.725C66.4213 5.35833 66.8546 5.175 67.3713 5.175C67.9046 5.175 68.3463 5.35 68.6963 5.7C69.0463 6.05 69.2213 6.49167 69.2213 7.025C69.2213 7.54167 69.038 7.975 68.6713 8.325C68.3213 8.675 67.888 8.85 67.3713 8.85ZM76.8943 13.875V17.425H82.6193V20.725H76.8943V24.575H83.3693V28H72.6193V10.45H83.3693V13.875H76.8943ZM110.295 10.45L105.72 28H100.545L97.7447 16.45L94.8447 28H89.6697L85.2197 10.45H89.7947L92.3197 23.225L95.4447 10.45H100.145L103.145 23.225L105.695 10.45H110.295Z" fill="#1382BE"/>
<path d="M130.925 16.1C130.925 17.1167 130.692 18.05 130.225 18.9C129.758 19.7333 129.042 20.4083 128.075 20.925C127.108 21.4417 125.908 21.7 124.475 21.7H121.825V28H117.55V10.45H124.475C125.875 10.45 127.058 10.6917 128.025 11.175C128.992 11.6583 129.717 12.325 130.2 13.175C130.683 14.025 130.925 15 130.925 16.1ZM124.15 18.3C124.967 18.3 125.575 18.1083 125.975 17.725C126.375 17.3417 126.575 16.8 126.575 16.1C126.575 15.4 126.375 14.8583 125.975 14.475C125.575 14.0917 124.967 13.9 124.15 13.9H121.825V18.3H124.15ZM142.101 28L138.451 21.375H137.426V28H133.151V10.45H140.326C141.709 10.45 142.884 10.6917 143.851 11.175C144.834 11.6583 145.567 12.325 146.051 13.175C146.534 14.0083 146.776 14.9417 146.776 15.975C146.776 17.1417 146.442 18.1833 145.776 19.1C145.126 20.0167 144.159 20.6667 142.876 21.05L146.926 28H142.101ZM137.426 18.35H140.076C140.859 18.35 141.442 18.1583 141.826 17.775C142.226 17.3917 142.426 16.85 142.426 16.15C142.426 15.4833 142.226 14.9583 141.826 14.575C141.442 14.1917 140.859 14 140.076 14H137.426V18.35ZM153.734 13.875V17.425H159.459V20.725H153.734V24.575H160.209V28H149.459V10.45H160.209V13.875H153.734ZM179.46 10.45L173.235 28H167.885L161.66 10.45H166.21L170.56 23.7L174.935 10.45H179.46ZM185.521 10.45V28H181.246V10.45H185.521ZM183.371 8.85C182.855 8.85 182.421 8.675 182.071 8.325C181.721 7.975 181.546 7.54167 181.546 7.025C181.546 6.50833 181.721 6.075 182.071 5.725C182.421 5.35833 182.855 5.175 183.371 5.175C183.905 5.175 184.346 5.35 184.696 5.7C185.046 6.05 185.221 6.49167 185.221 7.025C185.221 7.54167 185.038 7.975 184.671 8.325C184.321 8.675 183.888 8.85 183.371 8.85ZM192.894 13.875V17.425H198.619V20.725H192.894V24.575H199.369V28H188.619V10.45H199.369V13.875H192.894ZM226.295 10.45L221.72 28H216.545L213.745 16.45L210.845 28H205.67L201.22 10.45H205.795L208.32 23.225L211.445 10.45H216.145L219.145 23.225L221.695 10.45H226.295Z" fill="#1382BE"/>
<path d="M246.925 16.1C246.925 17.1167 246.692 18.05 246.225 18.9C245.758 19.7333 245.042 20.4083 244.075 20.925C243.108 21.4417 241.908 21.7 240.475 21.7H237.825V28H233.55V10.45H240.475C241.875 10.45 243.058 10.6917 244.025 11.175C244.992 11.6583 245.717 12.325 246.2 13.175C246.683 14.025 246.925 15 246.925 16.1ZM240.15 18.3C240.967 18.3 241.575 18.1083 241.975 17.725C242.375 17.3417 242.575 16.8 242.575 16.1C242.575 15.4 242.375 14.8583 241.975 14.475C241.575 14.0917 240.967 13.9 240.15 13.9H237.825V18.3H240.15ZM258.101 28L254.451 21.375H253.426V28H249.151V10.45H256.326C257.709 10.45 258.884 10.6917 259.851 11.175C260.834 11.6583 261.567 12.325 262.051 13.175C262.534 14.0083 262.776 14.9417 262.776 15.975C262.776 17.1417 262.442 18.1833 261.776 19.1C261.126 20.0167 260.159 20.6667 258.876 21.05L262.926 28H258.101ZM253.426 18.35H256.076C256.859 18.35 257.442 18.1583 257.826 17.775C258.226 17.3917 258.426 16.85 258.426 16.15C258.426 15.4833 258.226 14.9583 257.826 14.575C257.442 14.1917 256.859 14 256.076 14H253.426V18.35ZM269.734 13.875V17.425H275.459V20.725H269.734V24.575H276.209V28H265.459V10.45H276.209V13.875H269.734ZM295.46 10.45L289.235 28H283.885L277.66 10.45H282.21L286.56 23.7L290.935 10.45H295.46ZM301.521 10.45V28H297.246V10.45H301.521ZM299.371 8.85C298.855 8.85 298.421 8.675 298.071 8.325C297.721 7.975 297.546 7.54167 297.546 7.025C297.546 6.50833 297.721 6.075 298.071 5.725C298.421 5.35833 298.855 5.175 299.371 5.175C299.905 5.175 300.346 5.35 300.696 5.7C301.046 6.05 301.221 6.49167 301.221 7.025C301.221 7.54167 301.038 7.975 300.671 8.325C300.321 8.675 299.888 8.85 299.371 8.85ZM308.894 13.875V17.425H314.619V20.725H308.894V24.575H315.369V28H304.619V10.45H315.369V13.875H308.894ZM342.295 10.45L337.72 28H332.545L329.745 16.45L326.845 28H321.67L317.22 10.45H321.795L324.32 23.225L327.445 10.45H332.145L335.145 23.225L337.695 10.45H342.295Z" fill="#1382BE"/>
</svg>
